<?xml version="1.0" standalone="no"?>
<!DOCTYPE svg PUBLIC "-//W3C//DTD SVG 20010904//EN"
 "http://www.w3.org/TR/2001/REC-SVG-20010904/DTD/svg10.dtd">
<svg version="1.0" xmlns="http://www.w3.org/2000/svg"
 width="1032.000000pt" height="1280.000000pt" viewBox="0 0 1032.000000 1280.000000"
 preserveAspectRatio="xMidYMid meet">
<metadata>
Created by potrace 1.15, written by Peter Selinger 2001-2017
</metadata>
<g transform="translate(0.000000,1280.000000) scale(0.100000,-0.100000)"
fill="#000000" stroke="none">
<path d="M4935 12793 c-439 -35 -764 -108 -1140 -255 -848 -333 -1574 -1014
-1964 -1840 -567 -1201 -452 -2603 303 -3690 61 -87 177 -235 271 -344 l34
-40 -106 -120 c-1013 -1138 -1867 -2566 -2183 -3655 -225 -775 -194 -1343 93
-1705 129 -162 320 -303 602 -444 236 -119 240 -120 327 -90 211 72 451 303
658 635 34 55 66 104 70 109 5 4 -21 -81 -56 -190 -68 -209 -224 -730 -224
-748 0 -6 76 -30 170 -54 732 -184 1503 -288 2545 -344 356 -19 1374 -16 1735
5 717 42 1299 107 1825 203 187 34 623 129 632 137 6 7 -126 460 -216 742 -44
137 -79 251 -77 252 1 2 29 -40 62 -93 263 -425 548 -664 814 -681 83 -5 92
-4 166 27 111 46 320 151 401 202 357 222 533 456 607 803 169 793 -298 2136
-1242 3570 -294 447 -595 846 -943 1250 -80 94 -156 179 -168 189 -11 11 -21
23 -21 28 0 5 28 41 63 81 190 219 372 498 511 789 190 394 301 790 348 1238
16 161 16 549 0 710 -124 1192 -786 2224 -1816 2829 -555 327 -1231 506 -1880
499 -89 -1 -179 -3 -201 -5z"/>
</g>
</svg>
