<svg width="252.000000pt" height="250.000000pt" viewBox="0 0 252.000000 250.000000" xmlns="http://www.w3.org/2000/svg">
  <g transform="translate(0.000000,250.000000) scale(0.100000,-0.100000)" fill="#df4c62" stroke="none">
    <path d="M466 2208 c-40 -69 -57 -127 -63 -215 l-6 -83 17 -43 c9 -24 35 -63
59 -86 l42 -43 -70 8 c-83 10 -329 9 -346 -2 l-12 -7 7 -89 c8 -114 39 -268
77 -382 36 -109 116 -266 177 -349 61 -83 134 -159 207 -216 69 -54 261 -170
384 -231 193 -96 419 -170 636 -206 l100 -17 185 -1 185 -1 80 13 c86 14 257
57 282 70 l15 9 -59 28 -58 29 -61 60 c-98 99 -178 230 -222 366 -12 36 -33
117 -47 180 -30 134 -66 263 -76 270 -3 3 -19 37 -34 75 -75 189 -152 310
-268 422 l-83 80 -73 43 c-124 72 -274 119 -431 135 -116 11 -230 35 -315 66
l-83 30 -42 36 c-23 20 -51 50 -60 66 l-18 29 -26 -44z" />
  </g>
</svg>