<svg width="252.000000pt" height="250.000000pt" viewBox="0 0 252.000000 250.000000" xmlns="http://www.w3.org/2000/svg">
  <g transform="translate(0.000000,250.000000) scale(0.100000,-0.100000)" fill="#df4c62" stroke="none">
    <path d="M1013 1829 c-91 -14 -225 -64 -304 -115 -38 -24 -73 -44 -77 -44 -5
0 -67 -55 -139 -123 l-130 -123 -69 -34 -68 -35 -63 0 -63 0 6 -20 c14 -45 57
-118 91 -156 20 -22 56 -51 80 -65 l43 -26 65 4 c36 1 65 1 65 -2 0 -3 -27
-32 -61 -65 -62 -61 -159 -189 -159 -210 0 -6 35 -34 77 -62 144 -94 259 -143
423 -180 l115 -26 115 0 c63 0 144 6 180 12 192 36 498 171 678 299 39 29 76
52 80 52 14 0 186 156 238 216 114 132 212 290 263 424 12 30 21 55 21 56 0 1
-21 -9 -47 -22 -145 -71 -403 -45 -613 61 -138 70 -282 124 -401 154 -139 33
-254 43 -346 30z" />
  </g>
</svg>